<?xml version="1.0" encoding="utf-8"?>
<!-- Generator: Adobe Illustrator 21.0.0, SVG Export Plug-In . SVG Version: 6.00 Build 0)  -->
<svg version="1.1" id="Layer_1" xmlns="http://www.w3.org/2000/svg" xmlns:xlink="http://www.w3.org/1999/xlink" x="0px" y="0px"
	 viewBox="0 0 1160 1000" style="enable-background:new 0 0 1160 1000;" xml:space="preserve">
<style type="text/css">
	.st0{fill:#EC1E24;}
	.st1{fill:#DFE21A;}
</style>
<g>
	<path class="st0" d="M1138.7,561.7c-0.4,0.2-0.4,0.7-0.4,1.1c-0.1,6.4-2,12.3-4.5,18c-8.3,19.2-22.2,32.6-42,39.5
		c-54.4,18.9-108.9,37.8-163.3,56.7c-86.5,30-173,60-259.5,90c-16.3,5.6-32.6,11.3-48.9,17c-0.7,0.3-1.5,0.5-2.1,0.8
		c-0.1,0.9,0.5,1.1,0.8,1.5c7.7,7.9,7.7,19.4-0.1,27.3c-1.1,1.1-2.1,2.4-2.9,3.8c-1.6,3.2-4.1,5.7-7.2,7.5c-1.4,0.8-2.6,1.8-3.7,3
		c-2.4,2.8-5.5,4.6-9.1,5.5c-1.4,0.3-2.5,0.9-3.7,1.7c-3,2.1-6.3,3.4-10.1,3.4c-1.7,0-3.3,0.4-4.9,1c-3.6,1.3-7.3,1.7-11,0.5
		c-1.2-0.4-2.4-0.3-3.6-0.2c-4.2,0.4-8.3-0.1-12-2.4c-0.7-0.4-1.5-0.5-2.3-0.6c-4.2-0.5-8.1-2-11.2-5c-0.8-0.8-1.8-1.3-2.9-1.7
		c-3.6-1.3-6.6-3.6-8.8-6.8c-0.8-1.2-1.8-2.2-3-3c-3.1-2.2-5.4-5-6.7-8.5c-0.6-1.6-1.6-2.9-2.6-4.2c-5.8-7.5-5.5-18,0.8-24.7
		c1-1,2.1-2,3.1-3c-0.8-0.8-1.8-1.1-2.7-1.6c-25.9-12.1-51.8-24.2-77.7-36.3c-88.2-41.1-176.4-82.2-264.6-123.3
		c-36.5-17-73.1-33.9-109.6-51.2c-13.8-6.5-24.7-16.1-31.9-29.7c-4.1-7.7-6.7-15.9-7.8-24.5c-2.8-21.1,3.1-39.6,16.9-55.5
		c11.8-13.7,27-21.2,44.9-23.3c9.3-1.1,18.3-0.2,27.3,2.3c0.9,0.3,1.8,0.8,3.1,0.5c-9.4-14.3-13.8-29.9-12.1-47
		c1.8-17,8.6-31.6,21-43.5c5.7-5.5,12.1-10,19.3-13.3c7.1-3.3,14.6-5.2,22.3-6c7.9-0.8,15.6-0.3,23.3,1.5c7.6,1.8,14.6,4.8,21.9,9
		c-6.3-19.2-5.9-37.5,2.5-55.4c5.7-12.2,14.2-22.2,25.8-29c32-18.4,61.4-13.2,89,10.5c-2.3-20.5,3.8-38.2,16.4-53.8
		c7.9-9.9,18.2-16.4,30.2-20.3c16-5.2,32-5.9,47.9,0.4c15.6,6.3,27.9,16.6,36.4,31.5c0.8-1.2,0.8-2.3,1-3.3
		c5.5-26.9,20.9-45.4,47-54.6c5-1.7,10.1-3.2,15.4-3.2c0.4,0,0.8,0,1-0.4c3.8,0,7.7,0,11.5,0c0.4,0.6,1,0.4,1.5,0.4
		c3.5,0.1,7,0.7,10.4,1.7c24.4,7.2,40.9,22.6,49,46.8c0.3,0.8,0.6,1.6,1,2.9c6.6-15.8,16.7-27.9,31.2-36.1
		c14.5-8.2,30.1-10.8,46.5-8.1c13.2,2.2,24.9,7.9,34.9,17c14.8,13.6,22.4,30.5,23.5,50.6c6.5-8.8,14.4-15.7,23.8-21
		c9.5-5.3,19.6-8,30.4-8.6c10.8-0.6,21.2,1.4,31.1,5.6c12.3,5.2,22.2,13.5,29.9,24.4c11.7,16.8,14.7,35.4,11.3,55.4
		c4.8-3.5,9.5-6.8,14.7-9.4c5.2-2.6,10.7-4.6,16.4-5.8c5.7-1.2,11.6-1.5,17.4-1.4c5.9,0.2,11.6,1.1,17.3,2.7c5.6,1.6,11,3.9,16,6.9
		c5.1,3.1,9.7,6.8,13.9,11c4.1,4.2,7.7,8.7,10.7,13.8c3,5,5.3,10.4,6.9,16c1.6,5.6,2.4,11.4,2.7,17.3c0.3,5.9-0.4,11.6-1.6,17.4
		c-1.2,5.7-3.3,11-5.9,16.8c14.9-6.9,29.8-9.3,45.4-6.2c15.6,3.1,28.9,10.5,39.4,22.5c9.2,10.6,15.1,23,16.8,37
		c2.5,20.7-3.1,39.1-16.7,55.6c1.6-0.3,2.5-0.4,3.4-0.6c3-0.6,6-1,9-1.2c14.6-0.7,28.2,2.9,40.7,10.4c13.1,7.8,22,19.3,28,33.2
		c2.4,5.5,4.1,11.1,4.4,17.1c0.1,1.9,0,3.7,0.4,5.6C1138.7,554,1138.7,557.8,1138.7,561.7z M1068.9,491c-2.1,0.1-4.9,0.1-7.7,0.5
		c-7.7,0.9-15,3.2-21.8,6.9c-15.7,8.6-31.3,17.3-47,26c-23.3,12.9-46.5,25.8-69.8,38.7c-32.4,17.9-64.7,35.9-97.1,53.8
		c-25.9,14.4-51.9,28.7-77.8,43.1c-2.7,1.5-5.4,2.9-7.9,4.5c-5,3.3-6.6,9.3-4.2,14.8c1.5,3.5,4.3,5.5,7.7,6.8
		c19.8,7.6,39.7,15.2,59.5,22.8c3.9,1.5,7.7,1.5,11.7,0.1c29.9-10.5,59.9-20.8,89.8-31.2c37.3-12.9,74.6-25.8,111.8-38.7
		c24.7-8.5,49.3-17.1,74-25.7c30.2-10.5,47.6-42.2,40.5-73.7C1123.9,510.2,1096.5,490.5,1068.9,491z M592,233
		c0.1-3.7,0.1-8.1-0.6-12.3c-2.5-14-8.6-26.2-18.8-36c-14.6-14-32.4-19.2-52.3-16.9c-13.1,1.5-24.6,7.3-34.3,16.3
		c-10.2,9.5-16.6,21.2-19.2,34.9c-1,5.5-1.4,11.1-0.8,16.7c0.4,3.7,1,7.4,1.6,11.1c1.3,8.5,2.7,17,4,25.6c1.5,9.7,3.1,19.4,4.6,29.1
		c1.4,8.6,2.7,17.2,4.1,25.8c1.4,8.5,2.7,17,4.1,25.5c1.2,7.7,2.4,15.5,3.7,23.2c1.3,8.4,2.7,16.9,4,25.3c1.4,8.7,2.8,17.3,4.1,26
		c1.5,9.4,3,18.8,4.5,28.1c1.4,8.8,2.7,17.5,4.1,26.3c1.5,9.6,3.1,19.2,4.6,28.8c1.4,8.7,2.8,17.3,4.2,26c1.2,7.6,2.4,15.3,3.6,23
		c0.9,5.8,1.8,11.7,2.9,17.5c0.9,4.8,3.8,8,8.6,9.3c4.5,1.2,8.5,0.4,11.6-3.1c7.8-8.8,15.5-17.7,23.2-26.6c0.6-0.7,1.1-1.5,1.2-2.6
		c0.4-5.5,0.9-11,1.4-16.5c0.4-4.4,0.7-8.8,1.1-13.1c0.6-6.8,1.2-13.7,1.9-20.5c0.4-4.1,0.7-8.1,1-12.2c0.6-6.9,1.2-13.8,1.8-20.8
		c0.4-4.1,0.7-8.3,1.1-12.4c0.6-6.9,1.2-13.8,1.8-20.8c0.4-4.1,0.7-8.3,1-12.4c0.6-6.5,1.2-13,1.8-19.6c0.4-4.3,0.7-8.6,1.1-12.9
		c0.6-7.2,1.2-14.3,1.9-21.5c0.3-4,0.7-8,1.1-11.9c0.6-6.7,1.2-13.4,1.8-20c0.4-4.3,0.7-8.6,1-12.9c0.6-6.8,1.2-13.7,1.9-20.5
		c0.4-4.1,0.7-8.1,1.1-12.2c0.6-6.9,1.2-13.8,1.8-20.8c0.4-4.2,0.6-8.4,1.1-12.7C591.2,251.6,592.1,242.6,592,233z M1000,376.4
		c-2.5,0-4.9,0.1-7.4,0.4c-10,1.1-19.2,4.5-27.6,10.2c-4.7,3.2-8.8,7.1-13,11c-16.9,15.7-33.7,31.4-50.5,47.1
		c-9.4,8.7-18.7,17.4-28.1,26.2c-17,15.8-33.9,31.7-50.9,47.5c-11.5,10.7-23.1,21.5-34.6,32.2c-15.5,14.5-31,28.9-46.5,43.4
		c-5.9,5.5-11.8,11-17.7,16.5c-5.3,5-10.6,9.9-15.9,15c-3,2.9-4.3,6.4-3.5,10.6c0.9,5.1,4.5,8.9,9.6,9.7c3.5,0.6,7,1,10.4,1.4
		c7.3,0.9,14.6,1.6,21.9,2.6c2.9,0.4,5.3,0,7.8-1.4c8.9-5,17.9-10,26.8-14.9c16.7-9.3,33.4-18.5,50.1-27.8
		c20.1-11.2,40.3-22.3,60.4-33.5c15.4-8.5,30.8-17,46.1-25.6c19.9-11,39.9-22.1,59.8-33.2c10.3-5.7,20.7-11.1,30.7-17.3
		c7.1-4.4,13.9-9.2,19.4-15.5c13.6-15.5,18.3-33.5,14.5-53.5C1056.4,397.6,1030.2,376.2,1000,376.4z M91.6,441.2
		c-3-0.1-6.1,0-9.2,0.5c-7,1.2-13.8,3.4-20.1,6.7c-10.5,5.6-18.5,13.8-24.6,23.9c-5.1,8.3-7.9,17.4-8.6,27.2
		c-0.4,6.5,0.3,12.9,1.8,19.3c3.5,14.6,11,26.6,23.1,35.6c5,3.7,10.6,6.5,16.3,9.1c18.3,8.5,36.6,17.1,54.9,25.6
		c29,13.5,57.9,27,86.9,40.5c16.6,7.7,33.2,15.5,49.7,23.2c31.8,14.8,63.6,29.6,95.4,44.5c5.7,2.7,11.4,5.4,17.2,7.9
		c4.4,2,8.7,1.4,12.4-1.6c4.3-3.6,5.3-8.3,3.9-13.7c-2.7-9.8-5.4-19.6-7.9-29.4c-0.8-3-2.2-5.1-4.6-7c-8.8-7-17.6-14.1-26.3-21.2
		c-16.6-13.4-33.2-26.9-49.8-40.3c-16.2-13.1-32.3-26.1-48.5-39.2c-16.7-13.5-33.3-27-49.9-40.5c-15.5-12.5-31-25-46.4-37.5
		c-8.8-7.1-17.4-14.3-26.6-20.9C119,445.6,106.2,440.8,91.6,441.2z M790.6,213c-4.6-0.1-10.2,0.7-15.7,2.1
		c-10.3,2.6-19.6,7.3-27.4,14.6c-7.9,7.4-13.3,16.4-16.8,26.5c-7.6,21.7-15,43.5-22.5,65.2c-10.1,29.4-20.2,58.8-30.3,88.2
		c-10.3,29.8-20.5,59.7-30.8,89.5c-5,14.6-10.1,29.1-15.1,43.7c-3.9,11.5-7.9,23-11.8,34.5c-0.8,2.3-1.1,4.6-0.5,7.1
		c1.5,5.7,7.8,11.6,16.7,8.2c9.9-3.8,19.8-7.6,29.8-11.3c2.2-0.8,3.8-2.1,5.1-4.1c8.9-13.8,17.8-27.5,26.7-41.3
		c21-32.4,42.1-64.8,63.1-97.1c23.6-36.4,47.3-72.8,70.9-109.2c5-7.6,9.9-15.3,14.1-23.4c6.3-12.3,9-25.3,6.9-39
		c-2.4-15.6-9.4-28.7-21.6-38.9C819.9,218.6,806.9,212.9,790.6,213z M662.1,174.2c-3-0.1-6.4,0.1-9.8,0.7
		c-14.3,2.5-26.5,9-36.4,19.8c-8.1,8.8-13.2,19.1-15.4,30.9c-1.4,7.6-1.6,15.2-2.3,22.9c-0.4,4.3-0.7,8.6-1.1,12.9
		c-0.6,6.8-1.2,13.5-1.8,20.3c-0.4,4.1-0.7,8.3-1,12.4c-0.6,7.1-1.2,14.2-1.8,21.2c-0.4,4.1-0.7,8.3-1,12.4
		c-0.6,6.7-1.2,13.4-1.8,20c-0.4,4.1-0.7,8.1-1,12.2c-0.6,7-1.2,14-1.8,21c-0.4,4.3-0.7,8.6-1.1,12.9c-0.6,6.7-1.2,13.4-1.8,20
		c-0.4,4.1-0.7,8.1-1.1,12.2c-0.6,6.7-1.2,13.4-1.8,20c-0.4,4.4-0.7,8.8-1.1,13.1c-0.6,7-1.2,14-1.9,21c-0.4,4.1-0.7,8.1-1.1,12.2
		c-0.6,6.4-1.2,12.7-1.8,19.1c-0.5,6.1-1,12.3-1.6,18.4c-0.7,8.2-1.5,16.4-2.2,24.6c-0.5,5.4-0.9,10.8-1.4,16.2
		c-0.2,2.2,0.1,4.3,1,6.3c3.3,7.2,11.9,9.3,18.7,4.5c8.8-6.2,17.5-12.3,26.3-18.4c1.7-1.2,2.7-2.6,3.4-4.5
		c7.8-22.7,15.6-45.5,23.5-68.2c10.2-29.8,20.5-59.5,30.7-89.3c9.6-27.9,19.3-55.9,28.9-83.8c4.2-12.2,8.3-24.3,12.5-36.5
		c3-8.7,6-17.3,8.3-26.3c2.4-9.7,3.2-19.4,1.2-29.2C718.5,194.9,692,173.9,662.1,174.2z M968.3,344.8c0.2-6.7-1-12.7-2.7-18.6
		c-4.4-14.6-13.3-25.7-25.8-34.1c-10.2-6.9-21.5-10.3-33.9-10.3c-3.8,0-7.5,0.4-11.2,1c-7.4,1.2-14.4,3.6-20.9,7.3
		c-9.1,5.3-16.3,12.6-22,21.4c-14.4,22.1-28.7,44.3-43.1,66.4c-15.9,24.5-31.8,49-47.7,73.4c-22,33.9-44,67.7-66,101.6
		c-9.1,13.9-18.1,27.9-27.2,41.8c-1.1,1.8-2.1,3.6-2.5,5.7c-1.6,7,3.7,14,10.8,14.2c1.8,0.1,3.7,0,5.5-0.2
		c9.1-1.2,18.2-2.3,27.3-3.3c2.8-0.3,5.4-0.7,7.7-2.9c11.6-11,23.3-21.9,35-32.8c11.8-11,23.5-21.9,35.3-32.9
		c14.2-13.2,28.4-26.5,42.6-39.7c11.7-10.9,23.4-21.8,35.1-32.7c16-15,32-29.9,48-44.9c5.2-4.9,10.4-9.7,15.6-14.6
		c7.5-6.9,14.9-13.8,21.9-21.2c5.1-5.4,9.3-11.4,12.4-18.1C966.5,362.8,968.3,353.7,968.3,344.8z M334.6,256.4
		c-0.1,8,1.5,16,4.7,23.7c2.9,7.1,6,14.1,9,21.2c8.4,19.9,16.9,39.7,25.3,59.6c7.8,18.3,15.5,36.6,23.3,55
		c7.9,18.6,15.8,37.2,23.7,55.8c7.9,18.5,15.7,37.1,23.6,55.6c8,18.8,15.9,37.5,23.9,56.3c1.6,3.8,3.2,7.7,4.9,11.5
		c3.7,7.8,13.9,8.2,18.5,3.7c1.5-1.4,2.5-3.1,3.4-4.9c4.7-9.3,9.4-18.5,14.2-27.7c1.2-2.3,1.4-4.5,1-6.9c-0.1-0.6-0.2-1.3-0.3-1.9
		c-1.3-8.5-2.6-17-4-25.6c-1.4-8.6-2.8-17.2-4.1-25.8c-1.4-8.5-2.7-17-4-25.5c-1.7-10.7-3.4-21.4-5.1-32.2c-1.3-8.5-2.7-17-4-25.5
		c-1.7-10.6-3.4-21.3-5.1-31.9c-1.3-8.5-2.7-17-4-25.5c-1.4-8.5-2.8-17-4.1-25.5c-1.7-10.6-3.3-21.3-5-31.9
		c-1.3-8.5-2.8-17-4.1-25.5c-1.8-11.5-3.5-23-5.8-34.5c-1.6-7.8-3.8-15.3-7.7-22.3c-13.3-23.8-40.4-36.5-67.1-31.3
		C354.3,200.2,334.3,227.8,334.6,256.4z M276.5,249.6c-2.8-0.1-5.5,0.2-8.2,0.6c-1.7,0.2-3.5,0.5-5.2,0.9
		c-20.9,4.6-35.5,17.2-44.6,36.3c-5.1,10.8-6.2,22.3-4.5,34.2c1.6,10.7,5.4,20.3,11.8,29c3.5,4.7,7,9.3,10.5,14
		c23.7,31.4,47.3,62.8,71,94.2c16.5,21.8,32.9,43.7,49.4,65.5c23,30.6,46.1,61.2,69.1,91.8c1.7,2.3,3.4,4.6,5.3,6.8
		c4.7,5.7,12.3,6.2,17.6,1.3c2.3-2.1,3.3-4.8,4-7.8c2.3-10.1,4.7-20.2,7-30.3c0.5-2,0.4-3.9-0.5-5.8c-4.8-11.1-9.5-22.2-14.2-33.3
		c-7.7-18.2-15.5-36.5-23.2-54.7c-8.4-19.8-16.8-39.6-25.2-59.4c-8.7-20.4-17.3-40.9-26-61.4c-9.3-21.8-18.5-43.7-27.8-65.5
		c-3.5-8.3-6.9-16.7-11.6-24.5C318.9,260.9,300.4,250.5,276.5,249.6z M416.6,629.5C416.6,629.5,416.7,629.5,416.6,629.5
		c0.1-3.3-0.1-6.6,0.1-9.8c0.2-3.1-0.8-5.7-2.7-8.2c-13.2-17.3-26.2-34.7-39.3-52c-16.1-21.3-32.1-42.6-48.2-64
		c-24.2-32.1-48.3-64.1-72.5-96.1c-10.5-13.8-20.5-28-31.7-41.3c-15.2-17.9-34.3-26.1-57.8-23.4c-13.3,1.5-25,6.9-34.6,16.1
		c-16.5,15.7-23,34.9-19.3,57.4c2.4,14.9,9.7,27.1,21.1,36.9c5.3,4.5,10.8,8.8,16.2,13.2c19.9,16.2,39.9,32.3,59.8,48.5
		c20.6,16.7,41.1,33.3,61.7,49.9c21.5,17.4,43,34.8,64.5,52.2c17.5,14.1,34.9,28.3,52.4,42.4c3.9,3.2,7.8,6.4,11.8,9.4
		c5.9,4.4,14,2.7,17.6-3.7c1.3-2.4,1.7-4.9,1.7-7.6C417,642.7,416.8,636.1,416.6,629.5z"/>
	<path class="st1" d="M1138.3,544.6c0.1-0.2,0.3-0.5,0.4-0.7c0,2.1,0,4.2,0,6.2C1138.3,548.3,1138.4,546.5,1138.3,544.6z"/>
	<path class="st1" d="M1068.9,491c27.6-0.5,55.1,19.2,61.7,48.8c7,31.5-10.3,63.2-40.5,73.7c-24.7,8.6-49.3,17.1-74,25.7
		c-37.3,12.9-74.6,25.8-111.8,38.7c-30,10.4-59.9,20.8-89.8,31.2c-4,1.4-7.8,1.4-11.7-0.1c-19.8-7.6-39.7-15.2-59.5-22.8
		c-3.4-1.3-6.2-3.3-7.7-6.8c-2.4-5.5-0.7-11.5,4.2-14.8c2.5-1.7,5.2-3.1,7.9-4.5c25.9-14.4,51.9-28.7,77.8-43.1
		c32.4-17.9,64.7-35.9,97.1-53.8c23.3-12.9,46.5-25.8,69.8-38.7c15.7-8.7,31.3-17.4,47-26c6.8-3.7,14.1-6,21.8-6.9
		C1063.9,491.1,1066.7,491.1,1068.9,491z"/>
	<path class="st1" d="M592,233c0,9.6-0.9,18.6-1.8,27.6c-0.4,4.2-0.7,8.4-1.1,12.7c-0.6,6.9-1.2,13.8-1.8,20.8
		c-0.4,4.1-0.7,8.1-1.1,12.2c-0.6,6.8-1.3,13.7-1.9,20.5c-0.4,4.3-0.7,8.6-1,12.9c-0.6,6.7-1.2,13.4-1.8,20c-0.4,4-0.7,8-1.1,11.9
		c-0.6,7.2-1.2,14.3-1.9,21.5c-0.4,4.3-0.7,8.6-1.1,12.9c-0.6,6.5-1.2,13-1.8,19.6c-0.4,4.1-0.7,8.3-1,12.4
		c-0.6,6.9-1.2,13.8-1.8,20.8c-0.4,4.1-0.7,8.3-1.1,12.4c-0.6,6.9-1.2,13.8-1.8,20.8c-0.4,4.1-0.7,8.1-1,12.2
		c-0.6,6.8-1.3,13.7-1.9,20.5c-0.4,4.4-0.7,8.8-1.1,13.1c-0.5,5.5-1,11-1.4,16.5c-0.1,1-0.6,1.8-1.2,2.6
		c-7.7,8.9-15.4,17.8-23.2,26.6c-3.1,3.5-7.2,4.3-11.6,3.1c-4.8-1.3-7.7-4.5-8.6-9.3c-1.1-5.8-1.9-11.7-2.9-17.5
		c-1.2-7.6-2.4-15.3-3.6-23c-1.4-8.7-2.8-17.3-4.2-26c-1.5-9.6-3.1-19.2-4.6-28.8c-1.4-8.8-2.7-17.5-4.1-26.3
		c-1.5-9.4-3-18.8-4.5-28.1c-1.4-8.7-2.8-17.3-4.1-26c-1.3-8.4-2.7-16.9-4-25.3c-1.2-7.7-2.4-15.5-3.7-23.2
		c-1.4-8.5-2.7-17-4.1-25.5c-1.4-8.6-2.7-17.2-4.1-25.8c-1.5-9.7-3.1-19.4-4.6-29.1c-1.3-8.5-2.7-17-4-25.6
		c-0.6-3.7-1.2-7.4-1.6-11.1c-0.6-5.6-0.3-11.2,0.8-16.7c2.6-13.7,9-25.4,19.2-34.9c9.7-9,21.2-14.9,34.3-16.3
		c19.8-2.2,37.7,2.9,52.3,16.9c10.2,9.8,16.3,22,18.8,36C592.2,224.9,592.1,229.3,592,233z"/>
	<path class="st1" d="M1000,376.4c30.2-0.2,56.4,21.3,62,51.2c3.7,20.1-1,38-14.5,53.5c-5.5,6.3-12.3,11.1-19.4,15.5
		c-10,6.2-20.4,11.6-30.7,17.3c-19.9,11.1-39.8,22.1-59.8,33.2c-15.4,8.5-30.8,17-46.1,25.6c-20.1,11.2-40.3,22.3-60.4,33.5
		c-16.7,9.3-33.4,18.5-50.1,27.8c-8.9,5-17.9,9.9-26.8,14.9c-2.5,1.4-4.9,1.8-7.8,1.4c-7.3-1-14.6-1.7-21.9-2.6
		c-3.5-0.4-7-0.9-10.4-1.4c-5.1-0.8-8.7-4.6-9.6-9.7c-0.8-4.2,0.5-7.7,3.5-10.6c5.3-5,10.6-10,15.9-15c5.9-5.5,11.8-11,17.7-16.5
		c15.5-14.5,31-28.9,46.5-43.4c11.5-10.7,23.1-21.5,34.6-32.2c17-15.8,33.9-31.7,50.9-47.5c9.4-8.7,18.7-17.4,28.1-26.2
		c16.8-15.7,33.7-31.5,50.5-47.1c4.2-3.9,8.2-7.8,13-11c8.4-5.7,17.6-9,27.6-10.2C995,376.5,997.5,376.4,1000,376.4z"/>
	<path class="st1" d="M91.6,441.2c14.6-0.4,27.4,4.4,39,12.7c9.2,6.5,17.8,13.8,26.6,20.9c15.5,12.5,31,25,46.4,37.5
		c16.7,13.5,33.3,27,49.9,40.5c16.2,13.1,32.3,26.1,48.5,39.2c16.6,13.4,33.2,26.9,49.8,40.3c8.8,7.1,17.5,14.2,26.3,21.2
		c2.4,1.9,3.8,4,4.6,7c2.5,9.8,5.2,19.6,7.9,29.4c1.5,5.3,0.5,10.1-3.9,13.7c-3.7,3.1-8,3.6-12.4,1.6c-5.8-2.6-11.5-5.3-17.2-7.9
		c-31.8-14.8-63.6-29.6-95.4-44.5c-16.6-7.7-33.2-15.5-49.7-23.2c-29-13.5-57.9-27-86.9-40.5c-18.3-8.5-36.6-17.1-54.9-25.6
		c-5.7-2.6-11.2-5.4-16.3-9.1c-12.1-9-19.7-21-23.1-35.6c-1.5-6.3-2.3-12.8-1.8-19.3c0.7-9.7,3.5-18.8,8.6-27.2
		c6.1-10.1,14.1-18.3,24.6-23.9c6.3-3.4,13.1-5.5,20.1-6.7C85.5,441.1,88.6,441.1,91.6,441.2z"/>
	<path class="st1" d="M790.6,213c16.3-0.1,29.3,5.5,40.8,15.1c12.2,10.2,19.3,23.3,21.6,38.9c2.1,13.7-0.6,26.7-6.9,39
		c-4.2,8.1-9.2,15.8-14.1,23.4c-23.6,36.4-47.3,72.8-70.9,109.2c-21,32.4-42.1,64.8-63.1,97.1c-8.9,13.7-17.9,27.5-26.7,41.3
		c-1.3,2-2.9,3.3-5.1,4.1c-9.9,3.7-19.9,7.5-29.8,11.3c-8.9,3.4-15.2-2.5-16.7-8.2c-0.6-2.4-0.3-4.7,0.5-7.1
		c3.9-11.5,7.8-23,11.8-34.5c5-14.6,10.1-29.1,15.1-43.7c10.3-29.8,20.5-59.7,30.8-89.5c10.1-29.4,20.2-58.8,30.3-88.2
		c7.5-21.8,15-43.5,22.5-65.2c3.5-10.1,8.9-19.1,16.8-26.5c7.8-7.3,17.1-12,27.4-14.6C780.4,213.8,786,212.9,790.6,213z"/>
	<path class="st1" d="M662.1,174.2c29.9-0.3,56.4,20.7,62.4,51c1.9,9.8,1.2,19.5-1.2,29.2c-2.2,8.9-5.2,17.6-8.3,26.3
		c-4.2,12.1-8.4,24.3-12.5,36.5c-9.6,27.9-19.3,55.9-28.9,83.8c-10.2,29.8-20.5,59.5-30.7,89.3c-7.8,22.7-15.7,45.5-23.5,68.2
		c-0.7,1.9-1.7,3.3-3.4,4.5c-8.8,6.1-17.6,12.3-26.3,18.4c-6.8,4.8-15.3,2.7-18.7-4.5c-0.9-2-1.2-4.1-1-6.3
		c0.5-5.4,0.9-10.8,1.4-16.2c0.7-8.2,1.5-16.4,2.2-24.6c0.5-6.1,1-12.3,1.6-18.4c0.6-6.4,1.2-12.7,1.8-19.1
		c0.4-4.1,0.7-8.1,1.1-12.2c0.6-7,1.3-14,1.9-21c0.4-4.4,0.7-8.8,1.1-13.1c0.6-6.7,1.2-13.4,1.8-20c0.4-4.1,0.7-8.1,1.1-12.2
		c0.6-6.7,1.2-13.4,1.8-20c0.4-4.3,0.7-8.6,1.1-12.9c0.6-7,1.2-14,1.8-21c0.4-4.1,0.7-8.1,1-12.2c0.6-6.7,1.2-13.4,1.8-20
		c0.4-4.1,0.7-8.3,1-12.4c0.6-7.1,1.2-14.2,1.8-21.2c0.4-4.1,0.7-8.3,1-12.4c0.6-6.8,1.2-13.5,1.8-20.3c0.4-4.3,0.6-8.6,1.1-12.9
		c0.8-7.6,1-15.3,2.3-22.9c2.2-11.8,7.3-22.1,15.4-30.9c9.8-10.8,22-17.3,36.4-19.8C655.7,174.3,659.1,174.1,662.1,174.2z"/>
	<path class="st1" d="M968.3,344.8c0,8.9-1.7,17.9-5.7,26.5c-3.1,6.8-7.4,12.7-12.4,18.1c-6.9,7.4-14.4,14.3-21.9,21.2
		c-5.2,4.8-10.4,9.7-15.6,14.6c-16,15-32,29.9-48,44.9c-11.7,10.9-23.4,21.8-35.1,32.7c-14.2,13.3-28.4,26.5-42.6,39.7
		c-11.8,11-23.5,21.9-35.3,32.9c-11.7,10.9-23.4,21.8-35,32.8c-2.2,2.1-4.9,2.5-7.7,2.9c-9.1,1-18.2,2-27.3,3.3
		c-1.8,0.2-3.7,0.3-5.5,0.2c-7.1-0.2-12.4-7.2-10.8-14.2c0.5-2.1,1.4-3.9,2.5-5.7c9.1-13.9,18.1-27.9,27.2-41.8
		c22-33.9,44-67.7,66-101.6c15.9-24.5,31.8-49,47.7-73.4c14.4-22.1,28.7-44.3,43.1-66.4c5.7-8.8,12.8-16.1,22-21.4
		c6.5-3.8,13.5-6.1,20.9-7.3c3.7-0.6,7.4-1,11.2-1c12.3,0,23.7,3.4,33.9,10.3c12.5,8.4,21.4,19.5,25.8,34.1
		C967.3,332.1,968.5,338.1,968.3,344.8z"/>
	<path class="st1" d="M334.6,256.4c-0.3-28.6,19.7-56.2,51-62.3c26.8-5.2,53.8,7.5,67.1,31.3c3.9,7,6.1,14.5,7.7,22.3
		c2.3,11.4,4,23,5.8,34.5c1.3,8.5,2.8,17,4.1,25.5c1.7,10.6,3.3,21.3,5,31.9c1.3,8.5,2.8,17,4.1,25.5c1.4,8.5,2.7,17,4,25.5
		c1.7,10.6,3.4,21.3,5.1,31.9c1.4,8.5,2.7,17,4,25.5c1.7,10.7,3.4,21.4,5.1,32.2c1.3,8.5,2.7,17,4,25.5c1.4,8.6,2.8,17.2,4.1,25.8
		c1.3,8.5,2.7,17,4,25.6c0.1,0.6,0.2,1.3,0.3,1.9c0.4,2.4,0.2,4.6-1,6.9c-4.8,9.2-9.5,18.5-14.2,27.7c-0.9,1.8-1.9,3.5-3.4,4.9
		c-4.6,4.5-14.9,4.1-18.5-3.7c-1.8-3.8-3.3-7.6-4.9-11.5c-8-18.8-16-37.5-23.9-56.3c-7.9-18.5-15.7-37.1-23.6-55.6
		c-7.9-18.6-15.8-37.2-23.7-55.8c-7.8-18.3-15.5-36.6-23.3-55c-8.4-19.9-16.9-39.7-25.3-59.6c-3-7.1-6-14.1-9-21.2
		C336.1,272.4,334.5,264.4,334.6,256.4z"/>
	<path class="st1" d="M276.5,249.6c23.9,0.9,42.3,11.3,54.7,31.9c4.7,7.8,8.1,16.2,11.6,24.5c9.3,21.8,18.6,43.7,27.8,65.5
		c8.7,20.4,17.3,40.9,26,61.4c8.4,19.8,16.8,39.6,25.2,59.4c7.7,18.2,15.5,36.5,23.2,54.7c4.7,11.1,9.4,22.2,14.2,33.3
		c0.8,1.9,0.9,3.8,0.5,5.8c-2.3,10.1-4.7,20.2-7,30.3c-0.7,2.9-1.7,5.7-4,7.8c-5.3,4.9-12.9,4.3-17.6-1.3c-1.8-2.2-3.5-4.5-5.3-6.8
		c-23-30.6-46.1-61.2-69.1-91.8c-16.4-21.8-32.9-43.7-49.4-65.5c-23.7-31.4-47.3-62.8-71-94.2c-3.5-4.7-7-9.3-10.5-14
		c-6.4-8.6-10.3-18.3-11.8-29c-1.7-11.9-0.6-23.3,4.5-34.2c9-19.1,23.6-31.7,44.6-36.3c1.7-0.4,3.4-0.7,5.2-0.9
		C271.1,249.8,273.8,249.5,276.5,249.6z"/>
	<path class="st1" d="M416.6,629.5c0.2,6.6,0.4,13.3,0.6,19.9c0.1,2.7-0.3,5.3-1.7,7.6c-3.6,6.3-11.7,8.1-17.6,3.7
		c-4-3-7.9-6.2-11.8-9.4c-17.5-14.1-34.9-28.3-52.4-42.4c-21.5-17.4-43-34.8-64.5-52.2c-20.6-16.7-41.1-33.3-61.7-49.9
		c-19.9-16.2-39.9-32.3-59.8-48.5c-5.4-4.4-10.9-8.6-16.2-13.2c-11.4-9.8-18.7-22-21.1-36.9c-3.6-22.5,2.9-41.8,19.3-57.4
		c9.7-9.2,21.3-14.6,34.6-16.1c23.5-2.7,42.6,5.6,57.8,23.4c11.2,13.2,21.3,27.4,31.7,41.3c24.2,32,48.3,64.1,72.5,96.1
		c16.1,21.3,32.1,42.7,48.2,64c13.1,17.4,26.2,34.7,39.3,52c1.9,2.5,2.8,5.1,2.7,8.2C416.6,622.9,416.7,626.2,416.6,629.5
		C416.7,629.5,416.6,629.5,416.6,629.5z"/>
</g>
</svg>
